<svg xmlns="http://www.w3.org/2000/svg" width="61" height="75" viewBox="0 0 61 75">
    <g fill="none" fill-rule="evenodd">
        <path stroke="#6BC049" stroke-dasharray="1,1,61,10" stroke-linecap="round" stroke-linejoin="bevel" stroke-width="3" d="M2 44.43c0 15.646 12.684 28.33 28.33 28.33 15.647 0 28.33-12.684 28.33-28.33 0-9.629-7.53-20.992-11.342-22.618.892-5.954-12.4-8.057-13.42-10.96-2.424-4.745 3.177-7.896 5.446-7.512.922-1.67-5.558-1.757-8.413-.384-3.937 1.337-16.038 9.158-12.412 15.715C8.77 23.15 2 33 2 44.43z"/>
        <path stroke="#009483" stroke-linecap="round" stroke-width="3" d="M27.053 55.365c1.033 1.068 2.43 1.593 4.191 1.577 2.641-.024 3.868-1.115 4.264-1.577"/>
        <g fill="#009483" transform="translate(14 45)">
            <circle cx="3.525" cy="3.689" r="3"/>
            <circle cx="31" cy="4" r="3"/>
        </g>
    </g>
</svg>
