<svg xmlns="http://www.w3.org/2000/svg" width="85" height="91" viewBox="0 0 85 91">
    <g fill="none" fill-rule="evenodd">
        <g transform="translate(2 18)">
            <path stroke="#6BC049" stroke-dasharray="1,1,61,10" stroke-linecap="round" stroke-linejoin="bevel" stroke-width="3" d="M0 42.43c0 15.646 12.684 28.33 28.33 28.33 15.647 0 28.33-12.684 28.33-28.33 0-9.629-7.53-20.992-11.342-22.618.892-5.954-12.4-8.057-13.42-10.96-2.424-4.745 3.177-7.896 5.446-7.512.922-1.67-5.558-1.757-8.413-.384-3.937 1.337-16.038 9.158-12.412 15.715C6.77 21.15 0 31 0 42.43z"/>
            <circle cx="32" cy="33" r="3" fill="#009483"/>
            <circle cx="10.75" cy="32.75" r="2.75" fill="#009483"/>
            <path stroke="#009483" stroke-linecap="round" stroke-width="3" d="M16.137 40c.937 1.153 2.283 1.798 4.038 1.936 2.634.206 3.951-.774 4.385-1.2"/>
        </g>
        <g stroke-linecap="round" stroke-width="3">
            <path stroke="#575757" d="M49.586 29.58L46.245 61.37c-.473 2.894-1.96 4.21-4.46 3.947-2.5-.263-3.496-2.422-2.99-6.478"/>
            <path fill="#FFF" stroke="#E9AB5B" d="M21.267 17.375c-2.011 3.29-3.824 7.034-5.582 11.155-1.133 4.72 3.917-3.63 10.88-2.898 7.445.498 8.718 6.536 10.485 6.722 2.178.615 4.75-5.12 12.56-4.3 4.25.447 7.404 3.323 9.556 6.624 1.775 1.395 3.012-1.772 6.45-3.455 1.432-.702 3.246-1.145 5.641-.894 3.937.306 7.096 2.345 9.479 6.118a1.339 1.339 0 0 0 2.466-.821c-2.253-19.02-12.26-31.238-30.899-33.197-12.75-1.34-20.856 2.228-26.955 9.284"/>
        </g>
    </g>
</svg>
